<?xml version="1.0" standalone="no"?>
<!DOCTYPE svg PUBLIC "-//W3C//DTD SVG 20010904//EN"
 "http://www.w3.org/TR/2001/REC-SVG-20010904/DTD/svg10.dtd">
<svg version="1.0" xmlns="http://www.w3.org/2000/svg"
 width="831.000000pt" height="831.000000pt" viewBox="0 0 831.000000 831.000000"
 preserveAspectRatio="xMidYMid meet">
<metadata>
Created by potrace 1.14, written by Peter Selinger 2001-2017
</metadata>
<g transform="translate(0.000000,831.000000) scale(0.100000,-0.100000)"
fill="#000000" stroke="none">
<path d="M3910 6490 c-19 -5 -73 -11 -120 -14 -47 -3 -114 -10 -150 -16 -36
-6 -107 -13 -159 -15 -51 -3 -98 -8 -103 -11 -5 -3 -33 -10 -61 -14 -90 -15
-247 -49 -258 -56 -6 -3 -42 -10 -82 -15 -39 -5 -73 -13 -76 -18 -8 -12 -67
-28 -131 -36 -30 -3 -62 -12 -70 -19 -8 -8 -28 -16 -45 -20 -16 -4 -49 -11
-73 -16 -24 -5 -49 -16 -57 -24 -8 -7 -31 -17 -52 -21 -21 -4 -49 -13 -63 -21
-43 -23 -181 -74 -201 -74 -10 0 -19 -4 -19 -8 0 -5 -26 -22 -57 -38 -32 -16
-76 -40 -98 -55 -22 -14 -57 -32 -77 -40 -21 -7 -49 -23 -64 -36 -14 -12 -36
-25 -47 -29 -23 -7 -174 -113 -213 -149 -15 -13 -35 -27 -45 -30 -11 -4 -19
-11 -19 -16 0 -5 -5 -9 -10 -9 -6 0 -22 -11 -36 -25 -14 -14 -28 -25 -32 -25
-4 0 -18 -10 -32 -22 -14 -13 -41 -35 -61 -50 -20 -15 -50 -42 -67 -60 -16
-18 -45 -49 -64 -70 -18 -20 -49 -46 -68 -57 -19 -11 -33 -24 -31 -27 5 -8
-17 -37 -79 -104 -57 -61 -89 -104 -113 -149 -11 -20 -34 -52 -52 -72 -17 -19
-40 -50 -51 -67 -10 -18 -22 -32 -26 -32 -4 0 -8 -7 -8 -15 0 -9 -12 -28 -26
-42 -15 -15 -26 -37 -26 -50 0 -13 -4 -23 -9 -23 -5 0 -9 -4 -9 -10 0 -5 -16
-32 -35 -59 -19 -26 -35 -55 -36 -62 0 -8 -9 -27 -19 -44 -42 -68 -99 -195
-120 -265 -12 -41 -28 -88 -35 -105 -7 -16 -19 -52 -25 -80 -7 -27 -17 -55
-21 -61 -5 -5 -15 -35 -23 -65 -27 -98 -29 -104 -43 -125 -8 -12 -13 -37 -13
-55 2 -62 -20 -203 -41 -259 -28 -80 -30 -761 -1 -816 5 -10 12 -37 16 -59 8
-43 47 -155 77 -221 10 -22 19 -48 19 -57 0 -30 29 -89 55 -113 14 -13 25 -31
25 -41 0 -9 18 -42 39 -73 22 -31 43 -68 46 -83 4 -14 22 -41 41 -59 19 -18
44 -49 56 -68 27 -43 143 -157 193 -190 20 -14 47 -36 58 -49 63 -69 119 -121
128 -118 7 1 13 -3 16 -9 2 -6 -21 -16 -54 -23 -32 -7 -66 -17 -75 -22 -10 -5
-36 -9 -57 -9 -22 0 -42 -4 -45 -9 -3 -5 -41 -17 -83 -26 -219 -49 -334 -119
-314 -192 9 -33 49 -58 126 -80 115 -33 166 -42 250 -43 43 0 115 -7 160 -14
87 -16 215 -31 229 -27 5 1 37 -5 72 -14 43 -11 105 -15 196 -15 74 1 155 -4
183 -11 51 -12 261 -19 765 -25 298 -4 346 -4 395 -2 17 1 136 -2 265 -8 224
-9 828 -8 1600 1 195 2 555 6 800 9 245 3 508 8 585 11 77 3 178 2 225 -2 47
-5 114 -5 150 -1 36 5 106 10 155 12 50 3 124 10 165 16 41 6 195 14 341 19
146 4 271 11 277 15 10 6 82 16 217 31 141 15 195 39 195 88 0 35 -126 127
-173 127 -7 0 -56 14 -107 30 -52 17 -140 40 -197 52 -57 12 -103 25 -103 29
0 4 14 17 32 30 17 13 43 37 57 53 14 16 50 55 79 85 29 31 62 75 73 98 11 24
25 43 29 43 5 0 14 16 20 35 6 19 15 35 20 35 11 0 84 144 94 185 4 16 18 42
32 58 13 16 24 41 24 55 0 15 14 45 30 66 17 22 30 52 30 67 0 15 6 39 14 54
8 15 12 33 10 39 -3 7 2 28 10 47 8 18 19 70 26 114 6 44 18 93 26 108 19 40
18 828 -1 885 -8 21 -19 75 -25 120 -6 45 -20 107 -31 139 -11 32 -28 94 -39
138 -37 162 -65 260 -77 273 -7 7 -13 22 -13 33 0 10 -4 19 -10 19 -5 0 -10
11 -10 25 0 14 -4 25 -8 25 -5 0 -19 30 -32 68 -21 61 -71 161 -92 187 -24 29
-59 89 -64 110 -3 14 -10 28 -15 31 -5 3 -9 14 -9 25 0 10 -4 19 -9 19 -10 0
-45 56 -56 91 -4 12 -18 34 -31 48 -13 14 -31 42 -40 61 -9 19 -40 62 -69 95
-28 33 -56 67 -61 76 -5 9 -40 51 -79 93 -38 42 -74 85 -79 94 -12 21 -36 46
-36 37 0 -4 -6 0 -14 7 -8 7 -25 21 -40 32 -14 10 -23 22 -20 27 3 5 -2 9 -11
9 -9 0 -24 13 -33 30 -9 16 -20 30 -24 30 -9 0 -251 201 -256 212 -2 5 -9 8
-15 8 -12 0 -59 29 -161 100 -32 22 -60 40 -63 40 -3 0 -37 22 -76 49 -40 27
-97 59 -127 72 -30 12 -62 28 -70 34 -25 20 -92 53 -132 65 -21 6 -38 15 -38
19 0 4 -42 20 -92 35 -51 16 -111 37 -133 47 -49 22 -207 67 -253 73 -19 2
-39 9 -45 15 -6 6 -24 11 -40 11 -17 0 -55 9 -86 20 -31 11 -94 24 -141 29
-47 5 -110 19 -140 30 -47 17 -79 20 -210 21 -85 0 -171 4 -190 10 -19 5 -76
12 -126 15 -50 2 -102 9 -116 14 -17 6 -61 6 -127 -2 -77 -8 -115 -8 -159 1
-65 13 -91 14 -142 2z"/>
</g>
</svg>
